<svg xmlns="http://www.w3.org/2000/svg" viewBox="0 0 800 1000" width="800" height="1000">
  <defs>
    <linearGradient id="bgGrad" x1="0" y1="0" x2="1" y2="1">
      <stop offset="0%" stop-color="#1e3a8a"/>
      <stop offset="50%" stop-color="#1d4ed8"/>
      <stop offset="100%" stop-color="#172554"/>
    </linearGradient>
    <linearGradient id="shirtGrad" x1="0" y1="0" x2="0" y2="1">
      <stop offset="0%" stop-color="#4b5563"/>
      <stop offset="100%" stop-color="#374151"/>
    </linearGradient>
    <filter id="shadow" x="-10%" y="-10%" width="120%" height="120%">
      <feDropShadow dx="0" dy="10" stdDeviation="12" flood-opacity="0.3"/>
    </filter>
  </defs>

  <!-- Background -->
  <rect width="800" height="1000" fill="url(#bgGrad)"/>
  
  <!-- Subtle Lighting Overlay -->
  <circle cx="400" cy="300" r="350" fill="#ffffff" opacity="0.06"/>

  <!-- Body / Gray Button-down Shirt -->
  <path d="M 200 1000 Q 200 700 320 620 L 360 600 L 400 640 L 440 600 L 480 620 Q 600 700 600 1000 Z" fill="url(#shirtGrad)" filter="url(#shadow)"/>
  
  <!-- Collar -->
  <path d="M 320 620 L 370 690 L 400 640 L 430 690 L 480 620 L 430 600 Q 400 610 370 600 Z" fill="#6b7280"/>
  <path d="M 370 690 L 400 750 L 430 690 L 400 640 Z" fill="#1f2937"/>
  
  <!-- Buttons -->
  <circle cx="400" cy="780" r="6" fill="#9ca3af"/>
  <circle cx="400" cy="860" r="6" fill="#9ca3af"/>
  <circle cx="400" cy="940" r="6" fill="#9ca3af"/>

  <!-- Neck -->
  <rect x="360" y="520" width="80" height="110" rx="15" fill="#d19b75"/>
  <path d="M 360 580 Q 400 610 440 580 L 440 610 L 360 610 Z" fill="#b8805a" opacity="0.4"/>

  <!-- Head / Face -->
  <ellipse cx="400" cy="380" rx="140" ry="170" fill="#dfa781"/>
  
  <!-- Ears -->
  <ellipse cx="255" cy="380" rx="20" ry="35" fill="#d19b75"/>
  <ellipse cx="545" cy="380" rx="20" ry="35" fill="#d19b75"/>

  <!-- Hair -->
  <path d="M 255 350 C 250 210, 310 180, 400 180 C 490 180, 550 210, 545 350 C 530 260, 480 220, 400 230 C 330 220, 270 260, 255 350 Z" fill="#18181b"/>
  <path d="M 280 240 Q 360 190 420 220 Q 500 210 520 260 C 480 200, 380 200, 280 240 Z" fill="#27272a"/>

  <!-- Eyebrows -->
  <path d="M 290 315 Q 330 300 365 315" stroke="#27272a" stroke-width="10" stroke-linecap="round" fill="none"/>
  <path d="M 435 315 Q 470 300 510 315" stroke="#27272a" stroke-width="10" stroke-linecap="round" fill="none"/>

  <!-- Eyes -->
  <ellipse cx="330" cy="345" rx="18" ry="12" fill="#ffffff"/>
  <circle cx="330" cy="345" r="9" fill="#18181b"/>
  <circle cx="333" cy="342" r="3" fill="#ffffff"/>

  <ellipse cx="470" cy="345" rx="18" ry="12" fill="#ffffff"/>
  <circle cx="470" cy="345" r="9" fill="#18181b"/>
  <circle cx="473" cy="342" r="3" fill="#ffffff"/>

  <!-- Nose -->
  <path d="M 400 340 L 392 400 Q 400 412 408 400 Z" fill="#c78d65"/>

  <!-- Mouth / Smile -->
  <path d="M 355 450 Q 400 475 445 450" stroke="#a35f38" stroke-width="6" stroke-linecap="round" fill="none"/>

  <!-- Watermark Badge -->
  <rect x="20" y="20" width="220" height="40" rx="8" fill="#0f172a" opacity="0.8"/>
  <text x="130" y="45" font-family="monospace" font-size="14" font-weight="bold" fill="#38bdf8" text-anchor="middle">RIDHO FEBRIAN</text>
</svg>